<svg xmlns="http://www.w3.org/2000/svg" viewBox="0 0 512 512" width="512" height="512">
  <!-- Transparent background, just the glyph -->
  <g stroke="#18181B" stroke-width="14" stroke-linecap="round" stroke-linejoin="round" fill="none">
    <path d="M 172 140 Q 130 140 130 178 L 130 238 Q 130 256 108 256 Q 130 256 130 274 L 130 334 Q 130 372 172 372"/>
    <path d="M 340 140 Q 382 140 382 178 L 382 238 Q 382 256 404 256 Q 382 256 382 274 L 382 334 Q 382 372 340 372"/>
  </g>
  <g transform="translate(256,256)">
    <path d="M 0,-86 C 6,-22 22,-6 86,0 C 22,6 6,22 0,86 C -6,22 -22,6 -86,0 C -22,-6 -6,-22 0,-86 Z" fill="#F97316"/>
  </g>
</svg>